<svg id="Capa_1" data-name="Capa 1" xmlns="http://www.w3.org/2000/svg" viewBox="0 0 50 50"><defs><style>.cls-1{fill:#fff;}</style></defs><path class="cls-1" d="M5,23.5A1.33,1.33,0,0,1,6.19,23c.74,0,1.48,0,2.27,0,0-.17,0-.32,0-.47V20.37a.79.79,0,0,1,.88-.9c.87,0,1.75,0,2.62,0,.41,0,.53-.19.53-.58,0-.85,0-1.7,0-2.55,0-.32.15-.42.46-.42h2.43c.53,0,.65-.12.65-.63,0-.77,0-1.54,0-2.31,0-.45.13-.59.58-.59h2.39c.45,0,.62.18.62.65,0,.8,0,1.59,0,2.39,0,.34.11.49.47.49h9.71c.36,0,.49-.14.49-.49,0-.8,0-1.6,0-2.39,0-.51.15-.65.65-.65h2.31c.53,0,.63.1.63.65v2.27c0,.46.14.61.6.61h2.39c.49,0,.54,0,.56.53,0,.79,0,1.59,0,2.38,0,.53.07.62.61.64h2.42c.47,0,.53.05.53.51,0,.81,0,1.62,0,2.43,0,.55.05.61.62.62H44.1c.67,0,.95.28.95.95v9.31c0,.61-.28.89-.88.9H42c-.3,0-.47-.1-.48-.42s0-.36,0-.55V27.64c0-.53,0-.56-.54-.56-1,0-2,0-2.93,0-.39,0-.52.15-.52.53,0,1.87,0,3.74,0,5.6,0,1,0,1-1,1H34.86c-.72,0-.84-.12-.83-.85s0-1.38,0-2.07-.07-.65-.62-.65H16.55c-.35,0-.47.13-.46.46,0,.79,0,1.59,0,2.38,0,.46-.15.61-.61.62H13.21c-.61,0-.69-.07-.69-.7V27.72c0-.63,0-.65-.61-.65-1,0-2,0-3,0-.31,0-.4.13-.4.43,0,1.93,0,3.86,0,5.79,0,.89,0,.89-.88.89-.5,0-1,0-1.49,0A1.37,1.37,0,0,1,5,33.76ZM17.8,23h1.41c.24,0,.44-.08.44-.38,0-.84,0-1.67,0-2.5A.58.58,0,0,0,19,19.5c-.77,0-1.54,0-2.31,0-.41,0-.55.17-.56.52,0,.9,0,1.8,0,2.7,0,.25.13.33.37.32C16.92,23,17.36,23,17.8,23Zm14.37,0h0c.47,0,.94,0,1.41,0,.21,0,.32-.08.32-.29,0-.93,0-1.85,0-2.78,0-.32-.16-.48-.52-.47-.76,0-1.51,0-2.27,0-.52,0-.74.2-.74.73,0,.77,0,1.54,0,2.31,0,.36.15.49.49.49Z"/><path class="cls-1" d="M19.56,34.07h3c.53,0,.68.15.68.67,0,.75,0,1.51,0,2.27,0,.54-.21.74-.77.74H16.62c-.48,0-.67-.17-.67-.65,0-.82,0-1.64,0-2.46,0-.43.17-.57.61-.57Z"/><path class="cls-1" d="M33.87,34.13c0,.12.05.27.05.42,0,.86,0,1.73,0,2.59,0,.52-.1.61-.62.61H27.54c-.55,0-.76-.2-.76-.75q0-1.16,0-2.31c0-.46.08-.53.56-.53l5.63,0Z"/><path class="cls-1" d="M35.8,8.78H37c.28,0,.45.09.45.39,0,.92,0,1.83,0,2.74a.44.44,0,0,1-.5.47H34.46a.48.48,0,0,1-.55-.55q0-1.21,0-2.43a.55.55,0,0,1,.6-.61Z"/><path class="cls-1" d="M12.53,10.56V9.23c0-.31.13-.46.47-.46.79,0,1.59,0,2.38,0,.43,0,.59.16.6.59,0,.81,0,1.62,0,2.42,0,.4-.17.57-.57.58H13c-.31,0-.46-.13-.45-.44Z"/></svg>