<svg id="Capa_1" data-name="Capa 1" xmlns="http://www.w3.org/2000/svg" viewBox="0 0 50 50"><defs><style>.cls-1{fill:#fff;}</style></defs><path class="cls-1" d="M12.35,6.56V9h3.71v3.61h3.11v.81c0,.37-.06.32.32.32h.58V12.17h8.57v1.52h.9V12.58h3.11V9h3.71V6.56h2.82V18.17H36v2.56H33.11v12.9c0,.35,0,.38-.37.38H30.21c-.24,0-.24,0-.24.25v2.67c0,.27-.06.33-.32.33H27.79V40.2c0,.32-.06.38-.37.38H26.18a1.77,1.77,0,0,0,0,.23v2.28c0,.3-.06.35-.36.35H22.9c-.3,0-.35,0-.35-.36,0-.76,0-1.52,0-2.29v-.22h-1.3c-.24,0-.31-.08-.32-.32v-3H19.05c-.24,0-.3-.07-.3-.31,0-.9,0-1.8,0-2.71,0-.23,0-.23-.24-.23H16c-.31,0-.35,0-.35-.35V20.74H12.87c-.15,0-.19,0-.19-.2,0-.71,0-1.43,0-2.14v-.22H9.54V6.56ZM29.52,36.81V33.89c0-.25.07-.33.33-.33h2.58c.18,0,.24,0,.24-.23,0-1.48,0-3,0-4.45V14.32a.92.92,0,0,0,0-.16H16.06v19.4h2.8c.27,0,.33.07.33.34v2.91h1.88c.25,0,.31.07.31.31v3h1.3c.24,0,.32.08.32.32V43h2.72v-.17c0-.79,0-1.58,0-2.36,0-.25.07-.33.33-.33h1.28v-3c0-.23.07-.3.31-.3h1.88Z"/><path class="cls-1" d="M22.66,30.64V29H21V27.26H19.28V23.85H21V22.17h1.7V20.09H26v2.07h1.72v1.69h1.67v3.41H27.76v1.68h-1.7v1.7Z"/></svg>