<svg id="Capa_1" data-name="Capa 1" xmlns="http://www.w3.org/2000/svg" viewBox="0 0 50 50"><defs><style>.cls-1{fill:#fff;}</style></defs><path class="cls-1" d="M10.43,35.86a2.32,2.32,0,0,1,.54-.19c.88,0,1.75,0,2.62,0,.41,0,.53.12.54.53v2.62c0,.41-.14.53-.55.54-.87,0-1.74,0-2.61,0a1.76,1.76,0,0,1-.54-.22Z"/><path class="cls-1" d="M26.8,10.65h8.34c.58,0,.66.08.67.66s0,1.4,0,2.1c0,.44.1.54.54.54h2.18c.48,0,.59.13.59.61v2.56c0,.41.12.52.54.53h2.27c.37,0,.5.12.5.49q0,3.18,0,6.36c0,.38-.13.5-.53.5H32.77c-.55,0-.63.08-.63.63v2.11c0,.46-.12.58-.59.58H22.06c-.5,0-.61-.11-.61-.63v-2c0-.57-.08-.65-.64-.65h-9c-.52,0-.62-.1-.62-.61V18.26c0-.52.1-.61.62-.61h2.14c.44,0,.55-.11.56-.54,0-.86,0-1.71,0-2.56,0-.48.12-.6.61-.6h2.17c.43,0,.53-.1.53-.55,0-.71,0-1.42,0-2.14,0-.51.1-.61.62-.61ZM21.46,21.31H24.3c.35,0,.46-.1.46-.45V18.13c0-.36-.12-.48-.48-.48H18.66c-.37,0-.49.13-.5.5v2.62c0,.44.1.54.55.54Zm10.66,0H35c.35,0,.46-.11.46-.45,0-.91,0-1.81,0-2.72,0-.35-.12-.48-.48-.48H29.32c-.37,0-.49.12-.49.5V20.8c0,.41.09.5.51.51Z"/><path class="cls-1" d="M17.79,33.82v1.4c0,.32-.14.45-.45.45H14.56a.4.4,0,0,1-.46-.45c0-.92,0-1.85,0-2.78,0-.32.15-.46.48-.47h2.74c.34,0,.46.14.47.47Z"/><path class="cls-1" d="M35.8,33.83V32.45c0-.34.13-.47.46-.48H39a.41.41,0,0,1,.45.46c0,.93,0,1.85,0,2.78,0,.33-.15.46-.48.46H36.26c-.33,0-.45-.13-.46-.47Z"/><path class="cls-1" d="M43.15,37.52c0,.44,0,.89,0,1.34s-.11.48-.47.48H39.94c-.34,0-.47-.14-.47-.47,0-.91,0-1.83,0-2.74,0-.34.13-.46.47-.47h2.77c.32,0,.44.14.44.45C43.16,36.58,43.15,37.05,43.15,37.52Z"/><path class="cls-1" d="M17.78,30.13c0-.45,0-.91,0-1.37s.12-.45.44-.45H21a.4.4,0,0,1,.44.43v2.81A.4.4,0,0,1,21,32c-.95,0-1.89,0-2.84,0a.39.39,0,0,1-.42-.45C17.79,31.07,17.78,30.6,17.78,30.13Z"/><path class="cls-1" d="M35.8,30.17c0,.45,0,.91,0,1.37a.39.39,0,0,1-.42.45c-1,0-1.89,0-2.84,0a.4.4,0,0,1-.44-.44V28.74a.4.4,0,0,1,.44-.43h2.81c.32,0,.44.14.44.45C35.81,29.23,35.8,29.7,35.8,30.17Z"/></svg>