<svg id="Capa_1" data-name="Capa 1" xmlns="http://www.w3.org/2000/svg" viewBox="0 0 50 50"><defs><style>.cls-1{fill:#fff;}</style></defs><path class="cls-1" d="M36.37,43.44V41H32.66V37.43H29.55v-.81c0-.37.05-.32-.32-.32h-.58v1.53H20.08V36.31h-.9v1.11H16.07V41H12.36v2.41H9.54V31.83h3.15V29.27h2.92V16.37c0-.35,0-.38.37-.38h2.53c.24,0,.24,0,.24-.25V13.07c0-.27.06-.33.32-.33h1.86V9.8c0-.32.06-.38.37-.38h1.24c0-.08,0-.15,0-.23V6.91c0-.3.05-.35.35-.35h2.91c.31,0,.36.05.36.36V9.43h1.3c.24,0,.32.08.32.32v3h1.88c.24,0,.3.07.3.31v2.71c0,.23,0,.23.24.23h2.55c.31,0,.35,0,.35.35V29.26h2.73c.16,0,.2,0,.19.2v2.36h3.15V43.44ZM19.2,13.19v2.92c0,.25-.08.33-.33.33H16.29c-.18,0-.24,0-.24.23,0,1.48,0,3,0,4.45V35.84h16.6V16.44h-2.8c-.27,0-.34-.07-.34-.34V13.19H27.65c-.25,0-.32-.07-.32-.31v-3H26c-.25,0-.32-.08-.32-.32V7H23V9.55c0,.25-.07.33-.33.33H21.39v.23c0,.93,0,1.86,0,2.79,0,.23-.06.3-.3.3H19.2Z"/><path class="cls-1" d="M26.05,19.36v1.69h1.7v1.69h1.69v3.41H27.76v1.68h-1.7v2.08H22.67V27.84H21V26.15H19.28V22.74H21V21.06h1.7v-1.7Z"/></svg>