<svg id="Capa_1" data-name="Capa 1" xmlns="http://www.w3.org/2000/svg" viewBox="0 0 50 50"><defs><style>.cls-1{fill:#fff;}</style></defs><path class="cls-1" d="M27.07,8.82A1.09,1.09,0,0,1,27.74,10c0,1.32,0,2.64,0,4v.34h-5.4V14c0-1.33,0-2.66,0-4A1.09,1.09,0,0,1,23,8.82Z"/><path class="cls-1" d="M25,19.68a3.58,3.58,0,0,1,3.57,3.83A8.85,8.85,0,0,1,28,25.69a27.68,27.68,0,0,1-2.09,4.44.93.93,0,0,1-1.77,0,26.61,26.61,0,0,1-2.6-6,3.55,3.55,0,0,1,2.81-4.33C24.58,19.72,24.81,19.7,25,19.68Z"/><path class="cls-1" d="M16,32.38h2.7a.88.88,0,0,1,.91.93c0,.89,0,1.78,0,2.67h0c-.94,0-1.88,0-2.81,0a.86.86,0,0,1-.81-.88V32.37Z"/><path class="cls-1" d="M26.84,36H23.23v-2.7a.88.88,0,0,1,.91-.91h1.78a.88.88,0,0,1,.91.91V36Z"/><path class="cls-1" d="M34,32.37v2.69a.88.88,0,0,1-.93.91H30.45c0-.94,0-1.87,0-2.81a.85.85,0,0,1,.87-.81H34Z"/><path class="cls-1" d="M23.22,36c0,.9,0,1.8,0,2.7a.89.89,0,0,1-.91.91h-1.8a.86.86,0,0,1-.89-.83c0-.93,0-1.86,0-2.79h3.58Z"/><path class="cls-1" d="M26.83,36h3.61v2.61a.9.9,0,0,1-1,1H27.77a.89.89,0,0,1-.94-.94c0-.89,0-1.78,0-2.67Z"/><path class="cls-1" d="M16,32.37h-2.7a.87.87,0,0,1-.9-.91q0-.9,0-1.8a.87.87,0,0,1,.89-.89h1.8a.88.88,0,0,1,.91.91c0,.9,0,1.8,0,2.7Z"/><path class="cls-1" d="M34.05,32.38c0-.9,0-1.8,0-2.7a.88.88,0,0,1,.91-.91h1.8a.87.87,0,0,1,.89.89q0,.9,0,1.8a.87.87,0,0,1-.9.91H34.05Z"/><path class="cls-1" d="M22.34,18.64V16.11h5.37v2.52A5.32,5.32,0,0,0,22.34,18.64Z"/></svg>