<svg id="Capa_1" data-name="Capa 1" xmlns="http://www.w3.org/2000/svg" viewBox="0 0 315 117"><defs><style>.cls-1{fill:#3d3d3e;}.cls-2{fill:#373738;}.cls-3{fill:#6a6a6b;}.cls-4{fill:#2a2a2a;}.cls-5{fill:#442928;}.cls-6{fill:#3f3332;}.cls-7{fill:#303131;}.cls-21,.cls-22,.cls-8{fill:#202122;}.cls-9{fill:#1a1b1c;}.cls-10{fill:#1c1d1e;}.cls-11{fill:#5d3632;}.cls-12{fill:#4b3635;}.cls-13{fill:#5b3d3b;}.cls-14{fill:#4a4b4b;}.cls-15{fill:#503332;}.cls-16{fill:#1d1e1f;}.cls-17{fill:#cacaca;}.cls-18{fill:#e44445;}.cls-19{fill:#fae7e5;}.cls-20{fill:#f9e1df;}.cls-21{font-size:33.78px;}.cls-21,.cls-22{font-family:Pixeled;}.cls-22{font-size:27.32px;}</style></defs><path class="cls-1" d="M132.77,74.9v1.19l1.08.06a.91.91,0,0,1,.11.3c0,.6.11,1.1.91,1,.1,0,.23.21.34.32L134,77.5h-1.17l-.28-1.37h-3.76V74.9h4Z"/><path class="cls-1" d="M121.15,76.13V74.9h.27A3.53,3.53,0,0,0,122,75H125l.19,1,1.11.09.19,1.18-.11.12h-1.27l-.16-1.35h-3.76Z"/><path class="cls-2" d="M63,74.9l.13,1.23H59.3l-.2,0,0-1.21Z"/><path class="cls-1" d="M83.64,74.9l.13,1.23-.17,0-3.79,0,0,0,0-1.19Z"/><path class="cls-2" d="M66.79,76.12l0-1.08c.79,0,1.58,0,2.37,0,.43,0,.87-.09,1.3-.13h.28v1.23H67.09Z"/><path class="cls-2" d="M104.44,74.9v1.23h-4l0-1.08c.78,0,1.57,0,2.36,0,.44,0,.87-.09,1.31-.13Z"/><path class="cls-3" d="M42.31,74.9V75H38.49V74.9Z"/><path class="cls-3" d="M87.48,75V74.9H91.3V75Z"/><path class="cls-3" d="M108.27,75V74.9H112V75Z"/><path class="cls-3" d="M104.17,74.9c-.44,0-.87.12-1.31.13-.79,0-1.58,0-2.36,0l0-.14Z"/><path class="cls-3" d="M70.5,74.9c-.43,0-.87.12-1.3.13-.79,0-1.58,0-2.37,0l0-.14Z"/><path class="cls-3" d="M46.29,75V74.9H50V75Z"/><path class="cls-3" d="M125,74.9V75H122a3.53,3.53,0,0,1-.63-.13Z"/><path class="cls-1" d="M46.29,75H50l.1,1.08h0l-2.64,0c-1.25,0-1.24,0-1.13,1.18,0,0,0,.08,0,.12L45,77.63c-.42.19-.64,1.08-1.33.41-.18-.18-.36-.52-.53-.51-.69,0-.88-.31-.83-.93a2.53,2.53,0,0,0,0-.47h1.24l.24,1.21h1l.18-1.17h1Z"/><path class="cls-4" d="M72.29,77.4l.84.12v5a1.49,1.49,0,0,0-.6,0c-.21.08-.52.27-.52.42,0,.88-.58.94-1.23.91h0V82.61l1.11,0V77.63Z"/><path class="cls-5" d="M50,76.13h0l1.14.21c-.12.73.09,1.25,1,1.17.1,0,.31.25.31.39,0,1.53,0,3.07,0,4.68H51.35v0c0-1.42-.09-2.85-.09-4.27,0-.47-.12-.77-.61-.76s-.7-.29-.64-.78C50,76.54,50,76.33,50,76.13Z"/><path class="cls-6" d="M38.49,75h3.83v1.1H38.73c-.11.51-.09,1-.33,1.25s-.74.2-1.13.28v4.89l-.18,0h0c-.06-1-.11-1.91-.16-2.87,0-.73-.08-1.47-.11-2.21l.61-1.37h1Z"/><path class="cls-1" d="M57.91,82.69l-1.28-.17v-5l1.27-.2,0,.16v5.18Z"/><path class="cls-7" d="M113.34,77.35l1.19.18v5h-1.17l0,0,0-5Z"/><path class="cls-4" d="M119.91,82.55H118.7v-5l1.21-.2v5.19Z"/><path class="cls-8" d="M134,77.5l1.21.27v4.78h-1.07l-.17-.14Z"/><path class="cls-9" d="M78.43,82.57H77.38V77.5h1.06v5.07Z"/><path class="cls-10" d="M92.71,77.47l1,.08v5H92.68v-5Z"/><path class="cls-11" d="M47.35,87.47c-.05.07-.1.2-.15.2-.7,0-1,.33-1,1,0,.08-.25.23-.4.25a6.31,6.31,0,0,1-.88,0v0c0-.14,0-.27,0-.41-.06-.56,0-1,.75-1,.12,0,.33-.24.36-.39.11-.55.36-.91,1-.94.13,0,.35-.15.35-.23,0-1,.78-1,1.41-1.12l.41.23-.64,1.34c-.23.12-.94-.24-1.09.54l-.66-.29c-.06.16-.22.4-.18.45a2.1,2.1,0,0,0,.57.32C47.21,87.5,47.28,87.47,47.35,87.47Z"/><path class="cls-12" d="M64.22,89H63l-.11-1.17-1.11-.19c-.26-.39.29-1.07-.48-1.25.18-1,.18-1-.82-.93h-.06l-.35-.38L60,84c.65-.29.61.24.66.59s0,.63.46.59.55.2.65.53a.73.73,0,0,0,.7.62.8.8,0,0,1,.51.56c0,.64.33.83.91.78a1.64,1.64,0,0,1,.44.09V89Z"/><path class="cls-12" d="M110.86,85.08l-.26.9c-.17-.43-.38-.76-.95-.42l.14.85-.46,1,.15.14-1.15.18L108.17,89h-1.26v-1.3a6.66,6.66,0,0,1,.67-.07.56.56,0,0,0,.67-.58c0-.52.23-.79.78-.81.12,0,.26-.25.35-.4s.22-.62.39-.66c.61-.15.94-.43.94-1.08,0-.06.28-.11.44-.16Z"/><path class="cls-9" d="M99.1,82.55H98V77.77l1-.13c0,1.64,0,3.27.07,4.91Z"/><path class="cls-8" d="M36.84,77.5c0,.74.07,1.48.11,2.21,0,1,.1,1.91.16,2.87H36V77.5Z"/><path class="cls-2" d="M108.27,75H112l.15,1.09h-4l0,0Z"/><path class="cls-2" d="M87.48,75H91.3v1.09H87.62l-.18,0Z"/><path class="cls-13" d="M43.52,89a5.18,5.18,0,0,0-.66-.14c-.38,0-.59-.17-.54-.59s-.12-.61-.5-.55c-.66.11-.86-.19-.83-.79,0-.16-.13-.33-.2-.49l.21-.19a2.43,2.43,0,0,0,.27,0c.66-.06,1.13.08,1.16.9,0,.16.37.45.57.45.59,0,.76.24.69.77a4.14,4.14,0,0,0,0,.61Z"/><path class="cls-13" d="M104.37,87.87l-1.28-.29-.17-1-1-.17-.31-1.27.25-.5c.13.12.24.33.38.36,1,.17,1.05,1.45,2.05,1.58.12,0,.19.38.3.58s.19.33.29.5Zm-.09-.57v-.41l-.87-.06c0,.19,0,.53.08.53A4.21,4.21,0,0,0,104.28,87.3Z"/><path class="cls-11" d="M68.16,87.2c-.11.15-.18.37-.33.43a8.35,8.35,0,0,1-1,.28l-.42-.28c.08-.08.21-.14.23-.23.15-.64.38-1.16,1.16-1.23.1,0,.14-.35.26-.5s.42-.61.63-.6c.52,0,.62-.35.81-.66l.06.77-.17,1.14c-.41.25-1.2-.11-1.21.75a1.82,1.82,0,0,0-.45-.29.74.74,0,0,0-.46.07c-.07,0-.14.27-.09.32s.27.3.4.29A1.72,1.72,0,0,0,68.16,87.2Z"/><path class="cls-13" d="M82.38,86.67c-1.07,0-1.41-.77-1.64-1.63.05-.36.1-.72.16-1.09.35.5.62,1.09,1.34,1.17a.37.37,0,0,1,.22.31c0,.65.49.84.94,1.06Z"/><path class="cls-7" d="M82.38,86.67l1-.18a1.21,1.21,0,0,1,.14.37c0,.72.41.91,1,.9a1.41,1.41,0,0,1,.31.08V89H83.7c.07-.89-.22-1.48-1.26-1.32Z"/><path class="cls-13" d="M90.35,85.15c-.11.9-.55,1.42-1.51,1.37l-.72-.16a2.24,2.24,0,0,0,.45-.65c.12-.44.35-.7.79-.7s.59-.13.61-.53a4.42,4.42,0,0,1,.18-.69l.62.06C90.18,84.14,90.39,84.69,90.35,85.15Z"/><path class="cls-14" d="M123.72,86.66l-1.27-.33-.08-1.25h1.43l.07,1.48Z"/><path class="cls-14" d="M131.53,85.14l-.12,1.09-1.24.57-.15-.32.17-1.38,1.35-.09A.19.19,0,0,1,131.53,85.14Z"/><path class="cls-12" d="M99,77.64l-1,.13c.1-.12.22-.36.3-.35.87.14.85-.48.92-1a1.44,1.44,0,0,1,.05-.27h1.19v1.28Z"/><path class="cls-15" d="M88.12,86.36l.72.16c0,.6.06,1.19-.86,1.16-.17,0-.35.4-.53.62L86.36,88a2.15,2.15,0,0,1,.49-.27c.45-.09.8-.2.8-.79C87.65,86.76,88,86.56,88.12,86.36Z"/><path class="cls-13" d="M37.09,82.58l.18,0h1.37v1.32l-.15.32c-.1-.08-.21-.25-.29-.24C37.08,84.08,37.2,83.24,37.09,82.58Z"/><path class="cls-12" d="M113.36,82.57v1.12c-.41.43-1.17-.11-1.31.66l-.22-.45.21-1.35h1.3Z"/><path class="cls-14" d="M86.38,89l-.09,1.22-1.42.09V89h1.51Z"/><path class="cls-14" d="M64.22,89h1.5l-.14,1.22-1.26.08Z"/><path class="cls-14" d="M121.3,84.6a.81.81,0,0,0-.92-.81c-.39,0-.49-.22-.46-.57s0-.45,0-.67h1.2l.31,1.42Z"/><path class="cls-12" d="M57.91,82.69v-.07c1.35-.17,1.35-.17,1.36,1.18a.57.57,0,0,1,0,.13l-.14.13-1.23-.3Z"/><path class="cls-15" d="M112,76.14h1.34c0,.46,0,.84,0,1.22l0,.17L112,77.44Z"/><path class="cls-15" d="M91.31,76.11H92.6c0,.48.08.92.11,1.36l0,0H91.3V76.11Z"/><path class="cls-15" d="M57.92,77.51l0-.16V76.18l1.2-.07.2,0c0,.44-.06.88-.1,1.37Z"/><path class="cls-1" d="M128.93,87.72,128.77,89h-1.19c.12-1.32.12-1.32,1.35-1.4A.19.19,0,0,1,128.93,87.72Z"/><path class="cls-14" d="M126.21,89a.69.69,0,0,0-.2,0c-.72.11-1.18-.06-1.08-.91,0-.1-.06-.21-.1-.31V87.6l1.52.08L126.2,89Z"/><path class="cls-12" d="M72.29,77.4l-.4.23c-1.16-.28-1.16-.28-1.12-1.5h1.06Z"/><path class="cls-1" d="M92.68,82.56v1.27l-1.35.11h0V82.55h1.37Z"/><path class="cls-1" d="M79.8,84l-1.31-.12c0-.46,0-.86-.06-1.26v0h1.38v1.21Z"/><path class="cls-12" d="M78.44,77.5l.1-1.3,1.23-.11,0,0V77.5Z"/><path class="cls-7" d="M134,82.41l.17.14-.25,1.13-1.13.24h0V82.66Z"/><path class="cls-2" d="M100.48,83.93c-1.51-.09-1.1.12-1.38-1.38h1.38v1.38Z"/><path class="cls-14" d="M127.56,89v1.24l-1.18.06-.17-1.3h1.35Z"/><path class="cls-1" d="M51.35,82.57v1.26l-1.23.1h0V82.55h1.24Z"/><path class="cls-14" d="M106.91,89v1.18h-1.29c0-.38-.06-.78-.1-1.17v0h1.38Z"/><path class="cls-1" d="M43.52,89l.18,0h1.21v1.18H43.68Z"/><path class="cls-4" d="M119.91,77.37a1.88,1.88,0,0,0,0-.41c-.09-.63.21-.87.82-.82a1.89,1.89,0,0,0,.41,0h0v1.39l-1.23-.17Z"/><path class="cls-6" d="M38.49,84.19l.15-.32,1.21.1v1.18l-.05,0a1.58,1.58,0,0,0-.47-.07C38.61,85.2,38.4,84.84,38.49,84.19Z"/><path class="cls-4" d="M101.83,84.61l-.25.5h-1.1V83.93h1.3Z"/><path class="cls-2" d="M131.53,85.14a.19.19,0,0,0,0-.13l-.13-1.08h1.35C132.74,85.16,132.7,85.19,131.53,85.14Z"/><path class="cls-2" d="M49.15,85.11l-.41-.23.11-1h1.27c0,.06,0,.13,0,.2C50.08,85.06,50.08,85.06,49.15,85.11Z"/><path class="cls-4" d="M104.37,87.87l.48-.24c.51,0,.76.28.67.82a4.73,4.73,0,0,0,0,.53v0h-1.15Z"/><path class="cls-5" d="M69.55,85.18l-.06-.77c0-.35.17-.52.55-.48s.49,0,.74,0h0V85Z"/><path class="cls-8" d="M124.84,87.6v.15c-1.06-.15-1.06-.15-1.11-1.09l.15-.09,1.16-.14Z"/><path class="cls-8" d="M128.93,87.72a.19.19,0,0,0,0-.13V86.42l1.09.06.15.32v.78Z"/><path class="cls-4" d="M66.4,87.63l.42.28V89h-1.1C65.78,88.45,65.41,87.7,66.4,87.63Z"/><path class="cls-4" d="M41,86.24l-.21.19c-1.11-.07-.91.09-1-1.24l.05,0h1.08Z"/><path class="cls-10" d="M121.3,84.6l.12-.62.94-.08v1.19h0c-.22,0-.44,0-.66,0C121.33,85.12,121.24,84.93,121.3,84.6Z"/><path class="cls-16" d="M90.35,85.15c0-.46-.17-1,.42-1.3H91l.28.08h0V85Z"/><path class="cls-4" d="M59.14,84.06l.14-.13L60,84l.14,1.1C59,85.44,59.27,84.57,59.14,84.06Z"/><path class="cls-4" d="M79.8,84l0-.19.27.07.57.07.23,0L80.74,85l-.8-.17Z"/><path class="cls-8" d="M111.83,83.9l.22.45-.12.64-1.07.09.29-1.16Z"/><path class="cls-8" d="M86.36,88l1.09.28c0,.87-.6.63-1.07.68h0Z"/><path class="cls-16" d="M60.45,85.44h.06c1,0,1,0,.82.93C60.47,86.6,60.47,86,60.45,85.44Z"/><path class="cls-10" d="M109.79,86.41l-.14-.85c.57-.34.78,0,.95.42C110.65,86.71,110.05,86.24,109.79,86.41Z"/><path class="cls-16" d="M47.35,87.47c-.07,0-.14,0-.2,0a2.1,2.1,0,0,1-.57-.32c0-.05.12-.29.18-.45l.66.29Z"/><path class="cls-16" d="M68.16,87.2a1.72,1.72,0,0,1-.59.26c-.13,0-.3-.16-.4-.29s0-.28.09-.32a.74.74,0,0,1,.46-.07,1.82,1.82,0,0,1,.45.29Z"/><path class="cls-17" d="M122.36,85.09V83.9l-.94.08-.31-1.42H119.9V77.35l1.23.17V76.13h3.78l.16,1.35h1.27l.15,0-.21,1.31,1.4-.12-.26-1.21c1.38.2,1.46.13,1.39-1.25,0,0,0,0,0-.07h3.75l.28,1.37H134l0,4.91-1.19.25v1.27h-1.37l.13,1.08-1.35.09L130,86.48l-1.09-.06v1.17c-1.23.08-1.23.08-1.35,1.4H126.2l.16-1.31-1.52-.08.19-1.17-1.16.14-.07-1.48Zm-1-6.33c-.18,1.29-.15,1.32,1,1.32.3,0,.59,0,.89,0s.5-.11.49-.47c0-.55,0-1.09,0-1.63,0-.17-.21-.45-.32-.45-.32,0-.85-.26-.91.27C122.43,78.56,122,78.69,121.35,78.76Z"/><path class="cls-5" d="M87.44,76.12l.18,0a5.14,5.14,0,0,1-.05.88c0,.17-.19.43-.3.43-.66,0-1.1.19-1.09,1,0,.14-.43.38-.66.39s-.51-.32-.5-.46c.1-.78-.3-.94-1-.88a2.21,2.21,0,0,1-.47-.09V76.15l.17,0a2.46,2.46,0,0,1,.67.09c.17.07.41.25.44.41.14.73.35.91,1.13.81C86.31,76.16,86.31,76.16,87.44,76.12Z"/><path class="cls-15" d="M104.15,76.14h.5c.49,0,1.11-.19,1,.72,0,.18.2.4.32.6l-.38.73c0-.45-.27-.72-.75-.68s-.57-.18-.6-.55S104.18,76.41,104.15,76.14Z"/><path class="cls-15" d="M106.62,77.46c.08-.1.24-.22.23-.32-.13-1,.58-1,1.26-1l0,0c0,1.19,0,1.19-1.07,1.54a1.11,1.11,0,0,0-.19.09Z"/><path class="cls-5" d="M106.62,77.46l.26.31v1c-1.13.16-1.19.12-1.29-.61l.38-.73Z"/><path class="cls-14" d="M126.49,77.46l-.15,0,.11-.12,0,0S126.5,77.43,126.49,77.46Z"/><path class="cls-13" d="M66.79,76.12l.3,0a1.74,1.74,0,0,0-.11.39c-.07.55-.13,1.07-.91,1-.14,0-.3.32-.46.49l-.31-.63.39-1.3Z"/><path class="cls-5" d="M65.3,77.42l.31.63c-.07.9-.19,1-1.29.7V77.51l.15-.12Z"/><path class="cls-13" d="M64.47,77.39l-.15.12H62.94l.14-1.11.44.63.8-.22Z"/><path class="cls-5" d="M64.32,76.81l-.8.22-.44-.63,0-.26h0C63.61,76.19,64.3,75.92,64.32,76.81Z"/><path class="cls-14" d="M128.8,76.12s0,0,0,.07c.07,1.38,0,1.45-1.39,1.25v0l0,0,.16-1.26Z"/><path class="cls-8" d="M127.44,77.38l0,0v0l.26,1.21-1.4.12.21-1.31s0,0,0-.07Z"/><path class="cls-18" d="M63.11,76.14l0,.26-.14,1.11h1.38v1.24c1.1.27,1.22.2,1.29-.7.16-.17.32-.5.46-.49.78,0,.84-.48.91-1a1.74,1.74,0,0,1,.11-.39h3.68c0,1.22,0,1.22,1.12,1.5v4.93l-1.11,0v1.31c-.25,0-.5,0-.74,0s-.53.13-.55.48c-.19.31-.29.67-.81.66-.21,0-.44.37-.63.6s-.16.5-.26.5c-.78.07-1,.59-1.16,1.23,0,.09-.15.15-.23.23-1,.07-.62.82-.68,1.35H64.29V87.72a1.64,1.64,0,0,0-.44-.09c-.58.05-.88-.14-.91-.78a.8.8,0,0,0-.51-.56.73.73,0,0,1-.7-.62c-.1-.33-.24-.56-.65-.53s-.41-.29-.46-.59,0-.88-.66-.59l-.68,0a.57.57,0,0,0,0-.13c0-1.35,0-1.35-1.36-1.18V77.51H59.2c0-.49.07-.93.1-1.37Zm-1.4,3.79V77.56H60.55l-.24,1-1.11.23v1.12Z"/><path class="cls-18" d="M83.6,76.15v1.24a2.21,2.21,0,0,0,.47.09c.65-.06,1.05.1,1,.88,0,.14.33.46.5.46s.66-.25.66-.39c0-.79.43-1,1.09-1,.11,0,.26-.26.3-.43a5.14,5.14,0,0,0,.05-.88H91.3V77.5h1.38v5H91.31v1.24l-.29.06h-.25l-.62-.06a4.42,4.42,0,0,0-.18.69c0,.4-.22.54-.61.53s-.67.26-.79.7a2.24,2.24,0,0,1-.45.65c-.17.2-.47.4-.47.6,0,.59-.35.7-.8.79a2.15,2.15,0,0,0-.49.27c0,.32,0,.64,0,1H84.87V87.84a1.41,1.41,0,0,0-.31-.08c-.61,0-1-.18-1-.9a1.21,1.21,0,0,0-.14-.37c-.45-.22-.94-.41-.94-1.06a.37.37,0,0,0-.22-.31c-.72-.08-1-.67-1.34-1.17l-.24,0-.57-.07-.27-.07V82.55H78.44v-5h1.37V76.13ZM82.28,80V77.31c-.47.26-1.2-.21-1.21.65,0,.54-.28.7-.73.76-.17,0-.34.09-.49.13,0,1.13,0,1.13,1,1.13Z"/><path class="cls-18" d="M105.59,78.18c.1.73.16.77,1.29.61v-1a1.11,1.11,0,0,1,.19-.09c1.09-.35,1.09-.35,1.07-1.54H112v1.3l1.37.08c0,1.68,0,3.36,0,5H112l-.21,1.35-.68,0c-.16,0-.44.1-.44.16,0,.65-.33.93-.94,1.08-.17,0-.25.44-.39.66s-.23.39-.35.4c-.55,0-.76.29-.78.81a.56.56,0,0,1-.67.58,6.66,6.66,0,0,0-.67.07V89h-1.38a4.73,4.73,0,0,1,0-.53c.09-.54-.16-.78-.67-.82-.1-.17-.2-.33-.29-.5s-.18-.56-.3-.58c-1-.13-1.09-1.41-2.05-1.58-.14,0-.25-.24-.38-.36l0-.68h-1.3V82.55H99.1c0-1.64,0-3.27-.07-4.91l1.45-.23V76.13h3.67c0,.27.07.54.09.81s.18.59.6.55S105.54,77.73,105.59,78.18Zm-3.75-.65c.12,1-.51,1.28-1.35,1.24a4.15,4.15,0,0,0,0,.88c0,.15.21.37.33.38.73,0,1.45,0,2.19,0V77.53Z"/><path class="cls-18" d="M41,86.24l-.07-1.09H39.85V84l-1.21-.1V82.55H37.27V77.66c.39-.08.9,0,1.13-.28s.22-.74.33-1.25h3.58a2.53,2.53,0,0,1,0,.47c-.05.62.14,1,.83.93.17,0,.35.33.53.51-.3.52,0,.75.45.82.74.09.92-.17.88-1.23l1.17-.18s.06-.08,0-.12c-.11-1.18-.12-1.18,1.13-1.18l2.64,0c0,.2,0,.41,0,.61-.06.49.08.78.64.78s.61.29.61.76c0,1.42.05,2.85.09,4.27H50.11v1.37H48.85l-.11,1c-.63.16-1.4.15-1.41,1.12,0,.08-.22.23-.35.23-.61,0-.86.39-1,.94,0,.15-.24.39-.36.39-.78,0-.81.45-.75,1,0,.14,0,.27,0,.41H43.7a4.14,4.14,0,0,1,0-.61c.07-.53-.1-.78-.69-.77-.2,0-.57-.29-.57-.45,0-.82-.5-1-1.16-.9A2.43,2.43,0,0,1,41,86.24Zm-2.48-6.31H41V77.5h-1.2c.14,1-.43,1.32-1.32,1.26Z"/><path class="cls-5" d="M45,77.63c0,1.06-.14,1.32-.88,1.23-.49-.07-.75-.3-.45-.82C44.39,78.71,44.61,77.82,45,77.63Z"/><path class="cls-16" d="M104.28,87.3a4.21,4.21,0,0,1-.79.06s0-.34-.08-.53l.87.06Z"/><path class="cls-13" d="M91,83.85l.29-.06v.14Z"/><path class="cls-1" d="M80.09,83.83l.57.07Z"/><path class="cls-19" d="M61.71,79.93H59.2V78.81l1.11-.23.24-1h1.16Z"/><path class="cls-20" d="M82.28,80H80.89c-1.07,0-1.07,0-1-1.13.15,0,.32-.1.49-.13.45-.06.72-.22.73-.76,0-.86.74-.39,1.21-.65Z"/><path class="cls-20" d="M101.84,77.53H103v2.52c-.74,0-1.46,0-2.19,0-.12,0-.3-.23-.33-.38a4.15,4.15,0,0,1,0-.88C101.33,78.81,102,78.57,101.84,77.53Z"/><path class="cls-19" d="M38.52,79.93V78.76c.89.06,1.46-.25,1.32-1.26H41v2.43Z"/><text class="cls-21" transform="translate(22.8 60.6)">The Game</text><text class="cls-22" transform="translate(142.14 94.91)">of life</text></svg>